<?xml version="1.0" encoding="UTF-8" standalone="no"?>
<svg
   width="2500"
   height="2500"
   viewBox="0 0 300 300"
   version="1.1"
   id="svg22"
   sodipodi:docname="stumbleupon.svg"
   inkscape:version="1.2.1 (0f2f062aeb, 2022-09-21, custom)"
   xmlns:inkscape="http://www.inkscape.org/namespaces/inkscape"
   xmlns:sodipodi="http://sodipodi.sourceforge.net/DTD/sodipodi-0.dtd"
   xmlns="http://www.w3.org/2000/svg"
   xmlns:svg="http://www.w3.org/2000/svg">
  <defs
     id="defs26" />
  <sodipodi:namedview
     id="namedview24"
     pagecolor="#ffffff"
     bordercolor="#000000"
     borderopacity="0.25"
     inkscape:showpageshadow="2"
     inkscape:pageopacity="0.0"
     inkscape:pagecheckerboard="0"
     inkscape:deskcolor="#d1d1d1"
     showgrid="false"
     inkscape:zoom="0.2432"
     inkscape:cx="-39.0625"
     inkscape:cy="1252.0559"
     inkscape:window-width="1526"
     inkscape:window-height="836"
     inkscape:window-x="0"
     inkscape:window-y="0"
     inkscape:window-maximized="1"
     inkscape:current-layer="svg22" />
  <path
     fill="#EB4823"
     d="M300 150c0 82.843-67.157 150-150 150S0 232.843 0 150 67.157 0 150 0s150 67.157 150 150z"
     id="path18" />
  <path
     fill="#FFF"
     d="M149 83c-20.987 0-38 17.013-38 38v54c0 4.971-4.029 9-9 9s-9-4.029-9-9v-24H64v25c0 20.986 17.013 38 38 38 20.986 0 38-17.014 38-38v-55c0-4.971 4.028-9 9-9a9 9 0 0 1 9 9v11l12 5.5 17-5.5v-11c0-20.987-17.013-38-38-38zm9 68.5V176c0 20.986 17.013 38 38 38 20.986 0 38-17.014 38-38v-24h-29v24a9 9 0 0 1-9 9c-4.972 0-9-4.029-9-9v-24.5l-17 5.5-12-5.5z"
     id="path20" />
  <path
     style="fill:#0b421a;stroke-width:4.11184;fill-opacity:1"
     d="M 1184.2105,2495.4132 C 524.76883,2463.6173 2.4650983,1912.4297 2.1123951,1247.9441 1.932942,909.85777 144.1767,579.8588 391.14996,345.39474 818.02463,-59.858688 1469.9237,-111.61259 1955.1809,221.2272 c 65.8202,45.14633 114.4697,86.14538 178.8652,150.73741 64.8826,65.0807 109.7537,119.69838 157.2098,191.35776 195.1259,294.64272 255.1606,657.24233 165.7716,1001.23353 -45.6861,175.8121 -124.5911,330.6224 -244.1554,479.0296 -34.8688,43.2802 -133.0893,140.247 -179.5662,177.274 -245.5054,195.5883 -536.3519,289.633 -849.0954,274.5537 z M 915.1683,1778.3121 c 63.11961,-13.2776 110.0832,-38.882 158.2712,-86.2891 52.5503,-51.6986 81.8035,-110.3249 91.9626,-184.3024 2.7345,-19.9128 4.417,-124.5204 4.417,-274.6293 0,-233.42514 0.303,-243.05915 8.1306,-258.40224 24.967,-48.93951 94.3119,-51.63133 124.0029,-4.81357 11.4848,18.10967 11.781,19.98833 11.781,74.73161 v 56.155 l 51.2331,23.8314 51.2331,23.8314 72.6174,-23.5377 72.6175,-23.5377 -2.09,-74.7291 c -2.4017,-85.86859 -8.6046,-114.17155 -37.0793,-169.18878 -12.8231,-24.77611 -26.3427,-42.33857 -54.2138,-70.42607 -66.3576,-66.87274 -135.5869,-96.01476 -228.3312,-96.11587 -122.6381,-0.13372 -232.9911,69.79268 -285.35913,180.82085 -29.62377,62.80695 -28.5875,51.27644 -31.0699,345.72037 l -2.23874,265.5394 -11.78384,15.4439 c -19.01057,24.9152 -33.44967,31.8681 -62.76369,30.2229 -29.71826,-1.6679 -49.22003,-13.9815 -61.59256,-38.8902 -6.91011,-13.9115 -7.92233,-27.6507 -9.10502,-123.5874 l -1.33067,-107.9358 H 653.48022 532.48355 l 0.0288,124.3832 c 0.0247,108.9778 1.01949,128.5153 8.0275,157.7452 28.88335,120.4697 121.91608,211.5423 242.88228,237.765 35.69174,7.7371 95.47134,7.8256 131.74614,0.1949 z m 784.2153,-0.3174 c 122.4104,-25.2846 219.8562,-122.7305 245.1408,-245.1408 5.0921,-24.6523 6.5447,-57.7331 6.5447,-149.0457 v -117.3608 h -123.3553 -123.3552 v 109.3703 c 0,121.8948 -1.2108,128.4364 -27.479,148.4721 -14.7022,11.214 -45.1945,16.8309 -64.7391,11.9255 -14.6081,-3.6664 -39.5258,-26.5597 -46.1412,-42.3924 -4.1921,-10.0332 -5.5552,-40.0651 -5.5552,-122.3915 0,-86.0795 -1.114,-109.0959 -5.28,-109.0959 -2.9039,0 -34.8292,9.8907 -70.9451,21.9793 l -65.6653,21.9792 -48.6415,-21.9792 c -26.7528,-12.0886 -50.3373,-21.9793 -52.4101,-21.9793 -5.3303,0 -4.7588,210.17 0.6785,249.4969 17.8887,129.385 119.4885,238.6453 247.8775,266.5674 34.9053,7.5912 95.5044,7.4071 133.3255,-0.405 z"
     id="path201"
     transform="scale(0.12)" />
</svg>
