<?xml version="1.0" encoding="UTF-8" standalone="no"?>
<svg
   width="2500"
   height="2500"
   viewBox="0 0 300 300"
   version="1.1"
   id="svg22"
   sodipodi:docname="stumbleupon-inverted.svg"
   inkscape:version="1.2.1 (0f2f062aeb, 2022-09-21, custom)"
   xmlns:inkscape="http://www.inkscape.org/namespaces/inkscape"
   xmlns:sodipodi="http://sodipodi.sourceforge.net/DTD/sodipodi-0.dtd"
   xmlns="http://www.w3.org/2000/svg"
   xmlns:svg="http://www.w3.org/2000/svg">
  <defs
     id="defs26" />
  <sodipodi:namedview
     id="namedview24"
     pagecolor="#ffffff"
     bordercolor="#000000"
     borderopacity="0.25"
     inkscape:showpageshadow="2"
     inkscape:pageopacity="0.0"
     inkscape:pagecheckerboard="0"
     inkscape:deskcolor="#d1d1d1"
     showgrid="false"
     inkscape:zoom="0.42166825"
     inkscape:cx="1055.332"
     inkscape:cy="1507.109"
     inkscape:window-width="1526"
     inkscape:window-height="836"
     inkscape:window-x="0"
     inkscape:window-y="0"
     inkscape:window-maximized="1"
     inkscape:current-layer="svg22" />
  <path
     fill="#EB4823"
     d="M300 150c0 82.843-67.157 150-150 150S0 232.843 0 150 67.157 0 150 0s150 67.157 150 150z"
     id="path18" />
  <path
     fill="#FFF"
     d="M149 83c-20.987 0-38 17.013-38 38v54c0 4.971-4.029 9-9 9s-9-4.029-9-9v-24H64v25c0 20.986 17.013 38 38 38 20.986 0 38-17.014 38-38v-55c0-4.971 4.028-9 9-9a9 9 0 0 1 9 9v11l12 5.5 17-5.5v-11c0-20.987-17.013-38-38-38zm9 68.5V176c0 20.986 17.013 38 38 38 20.986 0 38-17.014 38-38v-24h-29v24a9 9 0 0 1-9 9c-4.972 0-9-4.029-9-9v-24.5l-17 5.5-12-5.5z"
     id="path20" />
  <path
     style="fill:#0b421a;stroke-width:4.11184;fill-opacity:1"
     d="M 1184.2105,2495.4132 C 524.76883,2463.6173 2.4650983,1912.4297 2.1123951,1247.9441 1.932942,909.85777 144.1767,579.8588 391.14996,345.39474 818.02463,-59.858688 1469.9237,-111.61259 1955.1809,221.2272 c 65.8202,45.14633 114.4697,86.14538 178.8652,150.73741 64.8826,65.0807 109.7537,119.69838 157.2098,191.35776 195.1259,294.64272 255.1606,657.24233 165.7716,1001.23353 -45.6861,175.8121 -124.5911,330.6224 -244.1554,479.0296 -34.8688,43.2802 -133.0893,140.247 -179.5662,177.274 -245.5054,195.5883 -536.3519,289.633 -849.0954,274.5537 z M 915.1683,1778.3121 c 63.11961,-13.2776 110.0832,-38.882 158.2712,-86.2891 52.5503,-51.6986 81.8035,-110.3249 91.9626,-184.3024 2.7345,-19.9128 4.417,-124.5204 4.417,-274.6293 0,-233.42514 0.303,-243.05915 8.1306,-258.40224 24.967,-48.93951 94.3119,-51.63133 124.0029,-4.81357 11.4848,18.10967 11.781,19.98833 11.781,74.73161 v 56.155 l 51.2331,23.8314 51.2331,23.8314 72.6174,-23.5377 72.6175,-23.5377 -2.09,-74.7291 c -2.4017,-85.86859 -8.6046,-114.17155 -37.0793,-169.18878 -12.8231,-24.77611 -26.3427,-42.33857 -54.2138,-70.42607 -66.3576,-66.87274 -135.5869,-96.01476 -228.3312,-96.11587 -122.6381,-0.13372 -232.9911,69.79268 -285.35913,180.82085 -29.62377,62.80695 -28.5875,51.27644 -31.0699,345.72037 l -2.23874,265.5394 -11.78384,15.4439 c -19.01057,24.9152 -33.44967,31.8681 -62.76369,30.2229 -29.71826,-1.6679 -49.22003,-13.9815 -61.59256,-38.8902 -6.91011,-13.9115 -7.92233,-27.6507 -9.10502,-123.5874 l -1.33067,-107.9358 H 653.48022 532.48355 l 0.0288,124.3832 c 0.0247,108.9778 1.01949,128.5153 8.0275,157.7452 28.88335,120.4697 121.91608,211.5423 242.88228,237.765 35.69174,7.7371 95.47134,7.8256 131.74614,0.1949 z m 784.2153,-0.3174 c 122.4104,-25.2846 219.8562,-122.7305 245.1408,-245.1408 5.0921,-24.6523 6.5447,-57.7331 6.5447,-149.0457 v -117.3608 h -123.3553 -123.3552 v 109.3703 c 0,121.8948 -1.2108,128.4364 -27.479,148.4721 -14.7022,11.214 -45.1945,16.8309 -64.7391,11.9255 -14.6081,-3.6664 -39.5258,-26.5597 -46.1412,-42.3924 -4.1921,-10.0332 -5.5552,-40.0651 -5.5552,-122.3915 0,-86.0795 -1.114,-109.0959 -5.28,-109.0959 -2.9039,0 -34.8292,9.8907 -70.9451,21.9793 l -65.6653,21.9792 -48.6415,-21.9792 c -26.7528,-12.0886 -50.3373,-21.9793 -52.4101,-21.9793 -5.3303,0 -4.7588,210.17 0.6785,249.4969 17.8887,129.385 119.4885,238.6453 247.8775,266.5674 34.9053,7.5912 95.5044,7.4071 133.3255,-0.405 z"
     id="path201"
     transform="scale(0.12)" />
  <path
     style="fill:#0b421a;stroke-width:0.372229"
     d=""
     id="path1685"
     transform="scale(0.12)" />
  <path
     style="fill:#0b421a;stroke-width:0.372229"
     d=""
     id="path1687"
     transform="scale(0.12)" />
  <path
     style="fill:#0b421a;stroke-width:0.372229;stroke:none"
     d=""
     id="path1689"
     transform="scale(0.12)" />
  <ellipse
     style="fill:none;stroke:none;stroke-width:0.12"
     id="path1743"
     cx="-9.3855734"
     cy="142.70659"
     rx="2.0123446"
     ry="1.3941741" />
  <ellipse
     style="fill:none;stroke:#000000;stroke-width:1.392;stroke-opacity:1;stroke-dasharray:none"
     id="path1769"
     cx="149.91888"
     cy="150.18771"
     rx="149.65663"
     ry="149.44287" />
  <path
     style="fill:#ffffff;fill-opacity:1;stroke:#0b421a;stroke-width:38.4951;stroke-dasharray:none;stroke-opacity:1"
     d="m 1161.4901,2486.847 c -42.9722,-3.8569 -108.5516,-12.4586 -139.3788,-18.2816 C 517.12508,2373.1772 126.04421,1982.089 30.316505,1476.7517 15.590163,1399.0128 11.770376,1353.0737 11.691023,1252.7501 11.611444,1152.1408 13.81152,1124.0581 28.459962,1038.704 95.089907,650.46222 347.77982,314.65307 704.8777,139.78704 835.21336,75.963416 971.51996,37.027452 1126.6454,19.309122 c 47.0148,-5.369991 198.3136,-5.388839 245.5722,-0.03059 347.6114,39.412628 646.7314,204.715088 855.6294,472.845898 210.0047,269.55114 298.1599,610.84017 245.7329,951.34427 -64.8007,420.8698 -348.5317,783.0318 -743.2757,948.7374 -105.6637,44.3555 -210.6725,72.2455 -334.2182,88.7674 -35.6151,4.7629 -200.8715,8.9003 -234.5959,5.8735 z"
     id="path7436"
     transform="scale(0.12)" />
  <path
     style="fill:#0b421a;fill-opacity:1;stroke:#0b421a;stroke-width:38.4951;stroke-dasharray:none;stroke-opacity:1;stroke-linecap:butt;stroke-linejoin:miter"
     d="m 1587.9229,1778.6041 c -126.5887,-19.6994 -228.2157,-112.935 -261.038,-239.484 -6.5296,-25.1756 -7.2601,-38.101 -8.5621,-151.509 -0.7829,-68.192 -0.1769,-123.2178 1.3466,-122.2796 1.5235,0.9382 23.9563,11.4392 49.8506,23.3355 l 47.0805,21.6298 69.7362,-22.5054 69.7362,-22.5054 0.9916,111.5403 c 0.9593,107.9141 1.2312,111.9884 8.362,125.3232 23.4868,43.9209 81.3466,54.5623 117.8285,21.6707 25.3393,-22.8457 25.6395,-24.5663 25.7219,-147.4544 l 0.073,-108.6823 h 119.683 119.683 l -1.2184,125.275 c -1.1365,116.8422 -1.7117,127.0621 -8.5455,151.8234 -8.1863,29.6614 -28.0296,73.2525 -44.2007,97.0986 -43.0643,63.503 -112.658,112.3551 -185.5459,130.2459 -32.2867,7.925 -91.3578,11.0878 -120.9824,6.4777 z"
     id="path7294"
     transform="scale(0.12)" />
  <path
     style="fill:#0b421a;fill-opacity:1;stroke:#0b421a;stroke-width:38.4951;stroke-dasharray:none;stroke-opacity:1"
     d="m 804.74674,1778.6041 c -136.11075,-21.1812 -245.29333,-130.1794 -265.64706,-265.1984 -3.41971,-22.6851 -4.78064,-62.9959 -4.79465,-142.0177 l -0.0196,-110.3416 h 119.46756 119.46756 v 103.7264 c 0,57.5916 1.44195,108.7542 3.24199,115.0305 9.01838,31.4453 38.82413,53.652 72.19179,53.7863 31.50627,0.1268 54.66825,-12.7755 68.12384,-37.9485 l 7.4361,-13.9115 1.95173,-260.5057 c 1.88181,-251.17355 2.20162,-261.41808 8.92695,-285.97688 26.75701,-97.70829 87.11355,-171.01337 174.53735,-211.98152 39.8218,-18.66115 72.7485,-26.51897 119.89,-28.61123 31.9065,-1.4161 46.0924,-0.46537 71.3641,4.78279 128.7328,26.73391 223.2766,121.06885 249.3753,248.82459 5.0832,24.88239 6.1135,42.29233 5.3822,90.95125 l -0.9044,60.1782 -68.7946,22.3031 -68.7946,22.3032 -49.0137,-22.4514 -49.0137,-22.4515 -1.6592,-57.8504 c -1.6426,-57.2696 -1.7598,-58.01273 -11.6662,-74.01918 -19.0647,-30.8042 -62.7131,-43.74481 -96.215,-28.52524 -14.1073,6.40884 -32.6646,25.26114 -39.1867,39.8096 -2.8666,6.39462 -4.4015,80.38452 -5.6889,274.24082 -1.7399,261.9986 -1.8605,265.8319 -9.1845,292.0318 -10.3184,36.9117 -36.3768,88.1665 -60.1845,118.3781 -39.5188,50.1487 -107.54853,93.8992 -169.46236,108.9827 -32.44815,7.9051 -91.58,11.0594 -121.12683,6.4614 z"
     id="path7365"
     transform="scale(0.12)" />
</svg>
